<svg id="ico_new" xmlns="http://www.w3.org/2000/svg" width="87" height="30" viewBox="0 0 87 30">
  <defs>
    <style>
      .cls-1 {
        fill: #d0251d;
      }

      .cls-1, .cls-2 {
        fill-rule: evenodd;
      }

      .cls-2 {
        fill: #fff;
      }
    </style>
  </defs>
  <path id="bg" class="cls-1" d="M72.988,30L87,15,72.4,0H-0.277V30H72.988Z"/>
  <path id="NEW" class="cls-2" d="M17.092,22.391h2.521V17.043c0-1.53-.2-3.2-0.324-4.645h0.09l1.35,2.863,3.853,7.13h2.7V9.067H24.763v5.312c0,1.513.2,3.277,0.342,4.663h-0.09l-1.332-2.881L19.811,9.067H17.092V22.391Zm16.722,0h8.372V20.158H36.479V16.593H41.16V14.36H36.479V11.281h5.51V9.067H33.814V22.391Zm15.57,0h3.259L54.1,15.8c0.216-1.044.4-2.071,0.576-3.079H54.75c0.162,1.008.36,2.035,0.576,3.079l1.495,6.59h3.313L62.6,9.067H60.062l-1.044,6.5c-0.2,1.386-.4,2.809-0.594,4.249h-0.09c-0.288-1.44-.558-2.881-0.846-4.249l-1.548-6.5H53.67l-1.548,6.5c-0.288,1.386-.576,2.827-0.846,4.249H51.2c-0.2-1.422-.414-2.845-0.612-4.249l-1.062-6.5H46.81Z"/>
</svg>
